{"title":"TeensLikeItBig  -  Jada Stevens ","uid":11099616,"size":262869189,"categoryP":"porn","categoryS":"movie_clips","magnet":"?xt=urn:btih:7884e8e0c043bc2f56064e2ce45e5266f0b6f01e&amp;dn=TeensLikeItBig++-++Jada+Stevens+&amp;tr=udp%3A%2F%2Ftracker.openbittorrent.com%3A80&amp;tr=udp%3A%2F%2Fopen.demonii.com%3A1337&amp;tr=udp%3A%2F%2Ftracker.coppersurfer.tk%3A6969&amp;tr=udp%3A%2F%2Fexodus.desync.com%3A6969","seeders":0,"leechers":0,"uploader":"supertongo","files":1,"time":1411654876,"description":"\nTeensLikeItBig  -  Jada Stevens anal clip in ipod/psp/mobile compatible resolution\n\n:::Media info:::\n\nGeneral\nFormat                         : MPEG-4\nFormat profile                 : Base Media\nCodec ID                       : isom\nFile size                      : 251 MiB\nDuration                       : 27mn 21s\nOverall bit rate mode          : Variable\nOverall bit rate               : 1 281 Kbps\n\n\nVideo\nID                             : 1\nFormat                         : AVC\nFormat/Info                    : Advanced Video Codec\nFormat profile                 : &lt;a class=&quot;__cf_email__&quot; href=&quot;/cdn-cgi/l/email-protection&quot; data-cfemail=&quot;632b0a040b232f504d53&quot;&gt;[email&amp;#160;protected]&lt;/a&gt;&lt;script data-cfhash='f9e31' type=&quot;text/javascript&quot;&gt;\n/* &lt;![CDATA[ */!function(){try{var t=&quot;currentScript&quot;in document?document.currentScript:function(){for(var t=document.getElementsByTagName(&quot;script&quot;),e=t.length;e--;)if(t[e].getAttribute(&quot;data-cfhash&quot;))return t[e]}();if(t&amp;&amp;t.previousSibling){var e,r,n,i,c=t.previousSibling,a=c.getAttribute(&quot;data-cfemail&quot;);if(a){for(e=&quot;&quot;,r=parseInt(a.substr(0,2),16),n=2;a.length-n;n+=2)i=parseInt(a.substr(n,2),16)^r,e+=String.fromCharCode(i);e=document.createTextNode(e),c.parentNode.replaceChild(e,c)}t.parentNode.removeChild(t);}}catch(u){}}()/* ]]&gt; */&lt;/script&gt;\nFormat settings, CABAC         : Yes\nFormat settings, ReFrames      : 3 frames\nCodec ID                       : avc1\nCodec ID/Info                  : Advanced Video Coding\nDuration                       : 27mn 21s\nDuration_FirstFrame            : -100ms\nBit rate                       : 1 100 Kbps\nWidth                          : 768 pixels\nHeight                         : 432 pixels\nDisplay aspect ratio           : 16:9\nFrame rate mode                : Variable\nFrame rate                     : 29.970 fps\nMinimum frame rate             : 7.493 fps\nMaximum frame rate             : 29.970 fps\nColor space                    : YUV\nChroma subsampling             : 4:2:0\nBit depth                      : 8 bits\nScan type                      : Progressive\nBits/(Pixel*Frame)             : 0.111\nStream size                    : 215 MiB (86%)\nLanguage                       : English\n\n\nAudio\nID                             : 2\nFormat                         : AAC\nFormat/Info                    : Advanced Audio Codec\nFormat profile                 : LC\nCodec ID                       : 40\nDuration                       : 27mn 21s\nBit rate mode                  : Variable\nBit rate                       : 114 Kbps\nChannel(s)                     : 2 channels\nChannel positions              : Front: L R\nSampling rate                  : 48.0 KHz\nCompression mode               : Lossy\nStream size                    : 22.3 MiB (9%)\nLanguage                       : English\n\n\n\n\n &lt;a href=&quot;\nhttp://bayimg.com/CaAoDaAGJ&quot; rel=&quot;nofollow&quot; target=&quot;_NEW&quot;&gt;\nhttp://bayimg.com/CaAoDaAGJ&lt;/a&gt;","torrent":{"xt":"urn:btih:7884e8e0c043bc2f56064e2ce45e5266f0b6f01e","amp;dn":"TeensLikeItBig++-++Jada+Stevens+","amp;tr":["udp%3A%2F%2Ftracker.openbittorrent.com%3A80","udp%3A%2F%2Fopen.demonii.com%3A1337","udp%3A%2F%2Ftracker.coppersurfer.tk%3A6969","udp%3A%2F%2Fexodus.desync.com%3A6969"],"infoHash":"7884e8e0c043bc2f56064e2ce45e5266f0b6f01e","infoHashBuffer":{"type":"Buffer","data":[120,132,232,224,192,67,188,47,86,6,78,44,228,94,82,102,240,182,240,30]},"announce":[],"urlList":[]}}